<svg id="Layer_1" data-name="Layer 1" xmlns="http://www.w3.org/2000/svg" viewBox="0 0 773 376"><defs><style>.cls-1{fill:none;stroke-width:2px;}.cls-1,.cls-2,.cls-6,.cls-7{stroke:#fff;stroke-miterlimit:10;}.cls-2{font-size:200px;font-family:ProductSans-Regular, Product Sans;}.cls-2,.cls-6,.cls-7{fill:#fff;}.cls-3{letter-spacing:0em;}.cls-4{letter-spacing:0em;}.cls-5{letter-spacing:0em;}.cls-6{stroke-width:3px;}</style></defs><title>googlereviews</title><polygon class="cls-1" points="650.82 332 616.4 313.9 581.98 332 588.55 293.67 560.7 266.52 599.19 260.93 616.4 226.06 633.61 260.93 672.1 266.52 644.25 293.67 650.82 332"/><text class="cls-2" transform="translate(36.71 171.15)"><tspan class="cls-3">G</tspan><tspan x="159.2" y="0">oog</tspan><tspan class="cls-4" x="498.4" y="0">l</tspan><tspan class="cls-5" x="538.2" y="0">e</tspan></text><polygon class="cls-6" points="155.92 332 121.5 313.9 87.07 332 93.65 293.67 65.8 266.52 104.29 260.93 121.5 226.06 138.71 260.93 177.2 266.52 149.35 293.67 155.92 332"/><polygon class="cls-6" points="278.6 332 244.18 313.9 209.76 332 216.33 293.67 188.48 266.52 226.97 260.93 244.18 226.06 261.39 260.93 299.88 266.52 272.03 293.67 278.6 332"/><polygon class="cls-6" points="524.8 332 490.38 313.9 455.96 332 462.53 293.67 434.68 266.52 473.17 260.93 490.38 226.06 507.59 260.93 546.08 266.52 518.23 293.67 524.8 332"/><polygon class="cls-6" points="402.12 332 367.7 313.9 333.27 332 339.85 293.67 312 266.52 350.49 260.93 367.7 226.06 384.91 260.93 423.4 266.52 395.55 293.67 402.12 332"/><polyline class="cls-6" points="616.4 313.9 581.98 332 588.55 293.67 560.7 266.52 599.19 260.93 616.4 226.06"/><line class="cls-7" x1="616.37" y1="226.43" x2="616.37" y2="314.06"/></svg>
